HIERARCHY
ROOT Hips
{
	OFFSET 0.000000 0.000000 0.000000
	CHANNELS 6 Xposition Yposition Zposition Zrotation Yrotation Xrotation 
	JOINT LowerBack
	{
		OFFSET 0.000000 0.000000 0.000000
		CHANNELS 3 Zrotation Yrotation Xrotation
		JOINT Spine
		{
			OFFSET 0.028270 2.035590 -0.193380
			CHANNELS 3 Zrotation Yrotation Xrotation
			JOINT Spine1
			{
				OFFSET 0.056720 2.048850 -0.042750
				CHANNELS 3 Zrotation Yrotation Xrotation
				JOINT Neck
				{
					OFFSET 0.000000 0.000000 0.000000
					CHANNELS 3 Zrotation Yrotation Xrotation
					JOINT Neck1
					{
						OFFSET -0.054170 1.746240 0.172020
						CHANNELS 3 Zrotation Yrotation Xrotation
						JOINT Head
						{
							OFFSET 0.104070 1.761360 -0.123970
							CHANNELS 3 Zrotation Yrotation Xrotation
							End Site
							{
								OFFSET 0.000000 0.000000 0.000000
							}
						}
					}
				}
				JOINT LeftShoulder
				{
					OFFSET 0.000000 0.000000 0.000000
					CHANNELS 3 Zrotation Yrotation Xrotation
					JOINT LeftArm
					{
						OFFSET 3.362410 1.200890 -0.311210
						CHANNELS 3 Zrotation Yrotation Xrotation
						JOINT LeftForeArm
						{
							OFFSET 4.983000 -0.000000 -0.000000
							CHANNELS 3 Zrotation Yrotation Xrotation
							JOINT LeftHand
							{
								OFFSET 3.483560 -0.000000 -0.000000
								CHANNELS 3 Zrotation Yrotation Xrotation
								JOINT LeftFingerBase
								{
									OFFSET 0.000000 0.000000 0.000000
									CHANNELS 3 Zrotation Yrotation Xrotation
									JOINT LeftHandIndex1
									{
										OFFSET 0.715260 -0.000000 -0.000000
										CHANNELS 3 Zrotation Yrotation Xrotation
										End Site
										{
											OFFSET 0.000000 0.000000 0.000000
										}
									}
								}
								JOINT LThumb
								{
									OFFSET 0.000000 0.000000 0.000000
									CHANNELS 3 Zrotation Yrotation Xrotation
									End Site
									{
										OFFSET 0.000000 0.000000 0.000000
									}
								}
							}
						}
					}
				}
				JOINT RightShoulder
				{
					OFFSET 0.000000 0.000000 0.000000
					CHANNELS 3 Zrotation Yrotation Xrotation
					JOINT RightArm
					{
						OFFSET -3.136600 1.374050 -0.404650
						CHANNELS 3 Zrotation Yrotation Xrotation
						JOINT RightForeArm
						{
							OFFSET -5.241900 -0.000000 -0.000000
							CHANNELS 3 Zrotation Yrotation Xrotation
							JOINT RightHand
							{
								OFFSET -3.444170 -0.000000 -0.000000
								CHANNELS 3 Zrotation Yrotation Xrotation
								JOINT RightFingerBase
								{
									OFFSET 0.000000 0.000000 0.000000
									CHANNELS 3 Zrotation Yrotation Xrotation
									JOINT RightHandIndex1
									{
										OFFSET -0.622530 -0.000000 -0.000000
										CHANNELS 3 Zrotation Yrotation Xrotation
										End Site
										{
											OFFSET 0.000000 0.000000 0.000000
										}
									}
								}
								JOINT RThumb
								{
									OFFSET 0.000000 0.000000 0.000000
									CHANNELS 3 Zrotation Yrotation Xrotation
									End Site
									{
										OFFSET 0.000000 0.000000 0.000000
									}
								}
							}
						}
					}
				}
			}
		}
	}
}
}
MOTION
Frames: 9
Frame Time: 0.008333
-2.777792 16.744894 -3.067999 -1.920189 74.582642 15.802679 -5.419732 1.176615 -0.206292 -1.710337 1.490608 -2.513321 -5.152420 1.429194 2.434811 10.045934 -6.286530 -6.666262 -2.223349 -0.180027 0.165696 0.000000 0.000000 0.000000 -7.174409 18.570839 1.576160 -70.074995 20.065370 9.224576 -4.169173 -25.296903 -0.034721 -13.563573 7.707321 -0.930041 -0.043127 -0.119998 -0.000000 0.000000 0.000000 0.000000 0.000000 0.000000 0.000000 11.252162 -1.524308 0.882166 39.737668 23.465315 13.945318 1.208257 65.068098 0.023691 7.420300 5.736164 0.390752 -0.062748 -0.229369 0.000000 0.000000 0.000000 0.000000 0.000000 0.000000 0.000000 
-2.636027 16.771571 -3.058745 -0.898923 74.029813 16.806007 -5.951568 1.087030 -0.103395 -1.826443 1.433164 -2.513696 -5.219642 1.370504 2.374155 10.223029 -6.232032 -6.584641 -2.251373 -0.182739 0.182015 0.000000 0.000000 0.000000 -7.101600 18.093313 1.599937 -69.954803 19.380255 9.503956 -4.182313 -24.907272 -0.033994 -13.487803 7.747718 -0.929132 -0.044117 -0.116885 -0.000000 0.000000 0.000000 0.000000 0.000000 0.000000 0.000000 11.472644 -1.528657 0.878952 40.763716 22.901569 14.105025 1.271349 64.463233 0.023681 7.351413 5.725149 0.385890 -0.056238 -0.225634 0.000000 0.000000 0.000000 0.000000 0.000000 0.000000 0.000000 
-2.497824 16.802459 -3.050725 -0.026273 73.420198 17.649345 -6.436137 1.001881 0.020700 -1.933665 1.377253 -2.508448 -5.285886 1.313889 2.318971 10.351274 -6.173421 -6.497212 -2.282560 -0.185711 0.199358 0.000000 0.000000 0.000000 -7.049983 17.627364 1.620507 -69.790414 18.586240 9.877567 -4.193490 -24.498364 -0.033189 -13.409024 7.790392 -0.928120 -0.045193 -0.113394 -0.000000 0.000000 0.000000 0.000000 0.000000 0.000000 0.000000 11.662151 -1.535606 0.869210 41.826501 22.367153 14.291669 1.337553 63.761173 0.023624 7.301084 5.704392 0.381325 -0.050175 -0.221247 0.000000 0.000000 0.000000 0.000000 0.000000 0.000000 0.000000 
-2.362690 16.836410 -3.044789 0.649259 72.743855 18.289592 -6.853219 0.925617 0.155572 -2.027809 1.325918 -2.501119 -5.350741 1.262163 2.263946 10.425433 -6.097508 -6.399120 -2.316726 -0.189027 0.219500 0.000000 0.000000 0.000000 -7.033593 17.158989 1.637280 -69.582327 17.727935 10.320542 -4.202077 -24.103232 -0.032336 -13.329790 7.835532 -0.927405 -0.046310 -0.109636 -0.000000 0.000000 0.000000 0.000000 0.000000 0.000000 0.000000 11.810473 -1.529509 0.855058 42.908140 21.840453 14.503204 1.405890 62.986417 0.023547 7.284568 5.672987 0.377955 -0.044802 -0.216215 0.000000 0.000000 0.000000 0.000000 0.000000 0.000000 0.000000 
-2.230106 16.872368 -3.041379 1.105944 71.996753 18.710326 -7.191199 0.859890 0.292902 -2.106380 1.280090 -2.492251 -5.414010 1.216216 2.213807 10.451637 -6.009259 -6.296486 -2.353935 -0.192622 0.241001 0.000000 0.000000 0.000000 -7.052860 16.712417 1.649525 -69.329470 16.798489 10.843975 -4.207846 -23.721978 -0.031430 -13.249211 7.877940 -0.926087 -0.047477 -0.105608 -0.000000 0.000000 0.000000 0.000000 0.000000 0.000000 0.000000 11.927843 -1.513822 0.837730 43.970648 21.331752 14.751236 1.474679 62.161619 0.023435 7.302477 5.632876 0.375680 -0.040208 -0.210593 0.000000 0.000000 0.000000 0.000000 0.000000 0.000000 0.000000 
-2.099579 16.909279 -3.040744 1.339228 71.180697 18.910999 -7.442472 0.805087 0.426594 -2.167576 1.239803 -2.482781 -5.475602 1.175991 2.169751 10.437704 -5.909979 -6.192504 -2.393874 -0.196438 0.263196 0.000000 0.000000 0.000000 -7.107660 16.296206 1.657401 -69.031621 15.805121 11.441360 -4.211114 -23.361911 -0.030480 -13.167327 7.914897 -0.923965 -0.048733 -0.101333 0.000000 0.000000 0.000000 0.000000 0.000000 0.000000 0.000000 12.021468 -1.488579 0.818851 44.986556 20.838757 15.041517 1.542576 61.311411 0.023284 7.355189 5.585394 0.374699 -0.036415 -0.204449 0.000000 0.000000 0.000000 0.000000 0.000000 0.000000 0.000000 
-1.970687 16.946378 -3.042774 1.365976 70.303896 18.911082 -7.605239 0.760002 0.553484 -2.210701 1.203917 -2.473755 -5.535548 1.140244 2.129930 10.393289 -5.800529 -6.087869 -2.436001 -0.200433 0.286058 0.000000 0.000000 0.000000 -7.195676 15.901425 1.661760 -68.690026 14.770409 12.087154 -4.212693 -23.036900 -0.029511 -13.084796 7.946834 -0.921140 -0.050138 -0.096875 0.000000 0.000000 0.000000 0.000000 0.000000 0.000000 0.000000 12.097631 -1.454328 0.800767 45.938035 20.353744 15.376287 1.608772 60.457203 0.023096 7.439980 5.532348 0.375012 -0.033345 -0.197875 0.000000 0.000000 0.000000 0.000000 0.000000 0.000000 0.000000 
-1.843167 16.983012 -3.047059 1.220378 69.378984 18.746146 -7.685590 0.721187 0.673870 -2.236686 1.169541 -2.463830 -5.593750 1.106153 2.099301 10.333507 -5.684741 -5.989956 -2.479446 -0.204427 0.307480 0.000000 0.000000 0.000000 -7.303138 15.556181 1.664564 -68.304768 13.664808 12.794634 -4.214127 -22.726861 -0.028514 -13.000146 7.968741 -0.916911 -0.051820 -0.092144 0.000000 0.000000 0.000000 0.000000 0.000000 0.000000 0.000000 12.169201 -1.414213 0.782578 46.807720 19.874272 15.752680 1.671532 59.622227 0.022850 7.552844 5.473165 0.376220 -0.031007 -0.190943 0.000000 0.000000 0.000000 0.000000 0.000000 0.000000 0.000000 
-1.716887 17.018791 -3.053070 0.943913 68.422400 18.456603 -7.691422 0.685783 0.789691 -2.246805 1.134430 -2.454732 -5.650362 1.071336 2.068745 10.267535 -5.564214 -5.892439 -2.523331 -0.208449 0.329331 0.000000 0.000000 0.000000 -7.426418 15.206705 1.667086 -67.879690 12.553974 13.489395 -4.216934 -22.465971 -0.027557 -12.915733 7.988618 -0.912379 -0.053840 -0.087338 0.000000 0.000000 0.000000 0.000000 0.000000 0.000000 0.000000 12.237434 -1.371906 0.768707 47.598198 19.386450 16.166537 1.731464 58.814304 0.022553 7.685047 5.411305 0.378024 -0.029132 -0.183792 0.000000 0.000000 0.000000 0.000000 0.000000 0.000000 0.000000 
